<?xml version="1.0" encoding="UTF-8"?>
<svg xmlns="http://www.w3.org/2000/svg" xmlns:xlink="http://www.w3.org/1999/xlink" width="500pt" height="500pt" viewBox="0 0 500 500" version="1.1">
<g id="surface10694040">
<path style=" stroke:none;fill-rule:nonzero;fill:rgb(12.54902%,12.54902%,12.54902%);fill-opacity:1;" d="M 250 20 C 123.085938 20 20 123.085938 20 250 C 20 376.914062 123.085938 480 250 480 C 376.914062 480 480 376.914062 480 250 C 480 123.085938 376.914062 20 250 20 Z M 250 40 C 366.09375 40 460 133.90625 460 250 C 460 366.09375 366.09375 460 250 460 C 133.90625 460 40 366.09375 40 250 C 40 133.90625 133.90625 40 250 40 Z M 249.375 107.8125 C 247.929688 108.007812 246.367188 108.59375 245 109.375 L 235.9375 114.6875 C 230.546875 117.8125 228.75 124.921875 231.875 130.3125 L 310.3125 265.3125 L 339.0625 248.4375 L 260.625 113.4375 C 258.28125 109.414062 253.75 107.265625 249.375 107.8125 Z M 225.3125 152.8125 C 220.9375 152.226562 216.40625 154.0625 214.0625 158.125 L 204.0625 175.3125 L 233.75 192.5 L 243.75 175.625 C 246.914062 170.234375 245.078125 163.164062 239.6875 160 L 229.6875 154.0625 C 228.320312 153.28125 226.757812 153.007812 225.3125 152.8125 Z M 201.5625 179.375 L 132.5 298.125 L 161.875 315.3125 L 231.25 196.875 Z M 103.125 233.125 L 103.125 266.25 L 145.3125 266.25 L 164.6875 233.125 Z M 214.375 233.125 L 195.9375 266.25 L 303.4375 266.25 L 285 233.125 Z M 337.1875 233.125 L 355 266.25 L 396.25 266.25 L 396.25 233.125 Z M 342.1875 254.0625 L 313.4375 270.625 L 330 299.375 L 358.75 282.5 Z M 357.5 290.3125 C 356.523438 290.46875 355.351562 291.015625 354.375 291.5625 C 349.6875 294.21875 342.851562 298.164062 338.75 300.625 C 331.054688 305.234375 336.992188 318.632812 338.75 321.5625 C 348.710938 338.242188 358.828125 336.015625 366.5625 347.8125 C 370.820312 354.257812 369.609375 356.914062 370.9375 359.0625 C 371.445312 359.84375 373.398438 360.898438 374.0625 360 C 386.015625 343.476562 382.382812 314.84375 373.75 302.1875 C 370.234375 297.03125 364.257812 289.21875 357.5 290.3125 Z M 128.75 304.375 L 114.375 358.4375 C 114.101562 359.414062 114.453125 360.429688 115.3125 360.9375 C 116.171875 361.445312 117.421875 361.328125 118.125 360.625 L 158.125 321.875 Z M 128.75 304.375 "/>
</g>
</svg>
