<?xml version="1.0" encoding="UTF-8"?>
<svg xmlns="http://www.w3.org/2000/svg" xmlns:xlink="http://www.w3.org/1999/xlink" width="500pt" height="500pt" viewBox="0 0 500 500" version="1.1">
<g id="surface10767151">
<path style=" stroke:none;fill-rule:nonzero;fill:rgb(12.54902%,12.54902%,12.54902%);fill-opacity:1;" d="M 100 30 C 66.984375 30 40 56.984375 40 90 L 40 412.441406 L 250 475.449219 L 460 412.441406 L 460 90 C 460 56.984375 433.015625 30 400 30 Z M 100 50 L 400 50 C 422.203125 50 440 67.796875 440 90 L 440 397.558594 L 250 454.550781 L 60 397.558594 L 60 90 C 60 67.796875 77.796875 50 100 50 Z M 110 80 C 93.429688 80 80 93.429688 80 110 L 80 280 C 80 296.570312 93.429688 310 110 310 L 150 310 L 150 280 L 110 280 L 110 210 L 140 210 L 140 180 L 110 180 L 110 110 L 150 110 L 150 80 Z M 170 80 L 170 310 L 200 310 L 200 210 L 230 210 C 246.570312 210 260 196.570312 260 180 L 260 110 C 260 93.429688 246.570312 80 230 80 Z M 280 80 L 280 310 L 310 310 L 310 80 Z M 360 80 C 343.429688 80 330 93.429688 330 110 L 330 280 C 330 296.570312 343.429688 310 360 310 L 390 310 C 406.570312 310 420 296.570312 420 280 L 420 240 L 390 240 L 390 280 L 360 280 L 360 110 L 390 110 L 390 150 L 420 150 L 420 110 C 420 93.429688 406.570312 80 390 80 Z M 200 110 L 230 110 L 230 180 L 200 180 Z M 90 330 C 84.480469 330 80 334.480469 80 340 L 80 380 C 80 385.519531 84.480469 390 90 390 L 130 390 C 135.519531 390 140 385.519531 140 380 L 140 360 L 120 360 L 120 370 L 130 370 L 130 377.5 C 130 378.878906 128.878906 380 127.5 380 L 92.5 380 C 91.121094 380 90 378.878906 90 377.5 L 90 342.5 C 90 341.121094 91.121094 340 92.5 340 L 127.5 340 C 128.878906 340 130 341.121094 130 342.5 L 130 350 L 140 350 L 140 340 C 140 334.480469 135.519531 330 130 330 Z M 180 330 L 150 390 L 160 390 L 165 380 L 205 380 L 210 390 L 220 390 L 190 330 Z M 230 330 L 230 390 L 240 390 L 240 350 L 255 380 L 265 380 L 280 350 L 280 390 L 290 390 L 290 330 L 280 330 L 260 370 L 240 330 Z M 300 330 L 300 390 L 350 390 L 350 380 L 310 380 L 310 365 L 330 365 L 330 355 L 310 355 L 310 340 L 350 340 L 350 330 Z M 370 330 C 364.480469 330 360 334.480469 360 340 L 360 355 C 360 360.519531 364.480469 365 370 365 L 407.5 365 C 408.878906 365 410 366.121094 410 367.5 L 410 377.5 C 410 378.878906 408.878906 380 407.5 380 L 372.5 380 C 371.121094 380 370 378.878906 370 377.5 L 370 375 L 360 375 L 360 380 C 360 385.519531 364.480469 390 370 390 L 410 390 C 415.519531 390 420 385.519531 420 380 L 420 365 C 420 359.480469 415.519531 355 410 355 L 372.5 355 C 371.121094 355 370 353.878906 370 352.5 L 370 342.5 C 370 341.121094 371.121094 340 372.5 340 L 407.5 340 C 408.878906 340 410 341.121094 410 342.5 L 410 345 L 420 345 L 420 340 C 420 334.480469 415.519531 330 410 330 Z M 185 340 L 200 370 L 170 370 Z M 185 340 "/>
</g>
</svg>
