<?xml version="1.0" encoding="UTF-8"?>
<svg xmlns="http://www.w3.org/2000/svg" xmlns:xlink="http://www.w3.org/1999/xlink" width="480pt" height="480pt" viewBox="0 0 480 480" version="1.1">
<g id="surface10389093">
<path style=" stroke:none;fill-rule:nonzero;fill:rgb(75.294118%,75.294118%,75.294118%);fill-opacity:1;" d="M 378.460938 375.390625 L 248.460938 436.058594 C 243.101562 438.558594 236.910156 438.558594 231.539062 436.058594 L 101.539062 375.390625 C 94.5 372.101562 90 365.03125 90 357.261719 L 90 80 C 90 68.949219 98.949219 60 110 60 L 370 60 C 381.050781 60 390 68.949219 390 80 L 390 357.261719 C 390 365.03125 385.5 372.101562 378.460938 375.390625 Z M 378.460938 375.390625 "/>
<path style=" stroke:none;fill-rule:evenodd;fill:rgb(100%,100%,100%);fill-opacity:1;" d="M 293.898438 370 L 185.878906 370 C 184.511719 370 184.101562 371.871094 185.351562 372.429688 L 238.230469 396.5 C 238.558594 396.648438 238.941406 396.648438 239.269531 396.511719 L 294.398438 372.441406 C 295.671875 371.890625 295.28125 370 293.898438 370 Z M 293.898438 370 "/>
<path style=" stroke:none;fill-rule:nonzero;fill:rgb(100%,100%,100%);fill-opacity:1;" d="M 124.488281 247.171875 L 167.808594 247.171875 L 167.808594 225.511719 L 146.148438 225.511719 L 146.148438 189.410156 L 167.808594 189.410156 L 167.808594 167.761719 L 146.148438 167.761719 L 146.148438 131.660156 L 167.808594 131.660156 L 167.808594 110 L 124.488281 110 Z M 124.488281 247.171875 "/>
<path style=" stroke:none;fill-rule:nonzero;fill:rgb(100%,100%,100%);fill-opacity:1;" d="M 254.441406 110 L 276.101562 110 L 276.101562 247.167969 L 254.441406 247.167969 Z M 254.441406 110 "/>
<path style=" stroke:none;fill-rule:nonzero;fill:rgb(100%,100%,100%);fill-opacity:1;" d="M 203.898438 203.851562 L 215.429688 203.851562 C 231.871094 203.851562 240 195.628906 240 178.988281 L 240 136.398438 C 240 118.730469 231.320312 110 213.738281 110 L 182.25 110 L 182.25 247.171875 L 203.910156 247.171875 L 203.910156 203.851562 Z M 203.898438 131.660156 L 211.121094 131.660156 C 215.109375 131.660156 218.339844 134.890625 218.339844 138.878906 L 218.339844 174.980469 C 218.339844 178.96875 215.109375 182.199219 211.121094 182.199219 L 203.898438 182.199219 Z M 203.898438 131.660156 "/>
<path style=" stroke:none;fill-rule:nonzero;fill:rgb(100%,100%,100%);fill-opacity:1;" d="M 355.511719 221.539062 L 355.511719 196.628906 L 333.851562 196.628906 L 333.851562 217.03125 C 333.851562 222.820312 331.058594 225.511719 325.269531 225.511719 L 320.980469 225.511719 C 314.96875 225.511719 312.191406 222.820312 312.191406 217.03125 L 312.191406 138.871094 C 312.191406 134.878906 315.421875 131.648438 319.410156 131.648438 L 326.628906 131.648438 C 330.621094 131.648438 333.851562 134.878906 333.851562 138.871094 L 333.851562 160.53125 L 355.511719 160.53125 L 355.511719 136.148438 C 355.511719 118.511719 346.738281 109.988281 328.558594 109.988281 L 317.699219 109.988281 C 299.53125 109.988281 290.539062 118.710938 290.539062 136.359375 L 290.539062 220.808594 C 290.539062 238.449219 299.53125 247.171875 317.699219 247.171875 L 328.699219 247.171875 C 346.640625 247.171875 355.511719 238.691406 355.511719 221.539062 Z M 355.511719 221.539062 "/>
<path style=" stroke:none;fill-rule:nonzero;fill:rgb(100%,100%,100%);fill-opacity:1;" d="M 354.941406 311.941406 L 354.878906 311.339844 L 354.761719 310.738281 L 354.640625 310.140625 L 354.519531 309.601562 L 354.339844 309.058594 L 354.160156 308.53125 L 353.929688 308.050781 L 353.628906 307.511719 L 353.328125 307.03125 L 352.96875 306.480469 L 352.621094 306.011719 L 352.199219 305.589844 L 351.78125 305.109375 L 351.300781 304.691406 L 350.828125 304.269531 L 350.351562 303.96875 L 349.871094 303.609375 L 349.398438 303.308594 L 348.859375 303.011719 L 348.320312 302.710938 L 347.71875 302.410156 L 347.121094 302.179688 L 346.53125 301.878906 L 345.871094 301.640625 L 345.339844 301.460938 L 344.800781 301.28125 L 344.199219 301.101562 L 343.671875 300.921875 L 343.070312 300.738281 L 342.480469 300.558594 L 341.878906 300.441406 L 341.21875 300.261719 L 340.621094 300.078125 L 339.96875 299.960938 L 339.308594 299.78125 L 338.660156 299.601562 L 338 299.421875 L 337.398438 299.300781 L 336.871094 299.121094 L 336.328125 299 L 335.851562 298.828125 L 335.378906 298.710938 L 334.660156 298.460938 L 334 298.230469 L 333.410156 297.980469 L 332.929688 297.679688 L 332.390625 297.378906 L 331.980469 296.960938 L 331.738281 296.609375 L 331.441406 295.949219 L 331.378906 295.171875 L 331.378906 295.050781 L 331.441406 294.449219 L 331.679688 293.910156 L 332.03125 293.371094 L 332.570312 292.890625 L 332.988281 292.648438 L 333.46875 292.410156 L 334 292.289062 L 334.601562 292.171875 L 335.25 292.050781 L 336.570312 292.050781 L 337.101562 292.109375 L 337.699219 292.171875 L 338.300781 292.230469 L 338.890625 292.351562 L 339.488281 292.480469 L 340.089844 292.589844 L 340.679688 292.769531 L 341.28125 292.949219 L 341.941406 293.128906 L 342.410156 293.371094 L 342.949219 293.550781 L 343.421875 293.789062 L 343.96875 294.03125 L 344.441406 294.269531 L 344.980469 294.511719 L 345.460938 294.808594 L 346 295.050781 L 346.46875 295.410156 L 346.949219 295.710938 L 347.480469 296.011719 L 347.960938 296.359375 L 348.320312 295.878906 L 348.621094 295.410156 L 348.96875 294.929688 L 349.328125 294.449219 L 349.691406 293.910156 L 349.988281 293.429688 L 350.351562 292.949219 L 350.710938 292.480469 L 351.011719 291.988281 L 351.359375 291.511719 L 351.71875 291.03125 L 352.019531 290.550781 L 352.371094 290.019531 L 352.730469 289.53125 L 353.089844 289.058594 L 353.390625 288.578125 L 353.75 288.101562 L 353.269531 287.738281 L 352.800781 287.378906 L 352.320312 287.019531 L 351.839844 286.71875 L 351.300781 286.359375 L 350.828125 286.058594 L 350.289062 285.761719 L 349.75 285.460938 L 349.269531 285.21875 L 348.730469 284.921875 L 348.140625 284.679688 L 347.609375 284.449219 L 347.070312 284.199219 L 346.53125 284.019531 L 345.929688 283.78125 L 345.398438 283.671875 L 344.859375 283.480469 L 344.261719 283.300781 L 343.71875 283.191406 L 342.539062 282.949219 L 341.988281 282.828125 L 341.398438 282.699219 L 340.75 282.648438 L 340.148438 282.53125 L 339.488281 282.46875 L 338.890625 282.46875 L 338.238281 282.398438 L 337.578125 282.351562 L 335.019531 282.351562 L 334.429688 282.398438 L 333.828125 282.46875 L 333.230469 282.53125 L 332.628906 282.589844 L 332.101562 282.699219 L 331.5 282.828125 L 330.960938 282.949219 L 330.417969 283.070312 L 329.949219 283.191406 L 329.410156 283.371094 L 328.808594 283.601562 L 328.21875 283.78125 L 327.679688 284.019531 L 327.148438 284.320312 L 326.609375 284.570312 L 326.070312 284.859375 L 325.589844 285.160156 L 325.121094 285.519531 L 324.640625 285.878906 L 324.21875 286.179688 L 323.75 286.601562 L 323.328125 287.078125 L 322.910156 287.5 L 322.488281 287.980469 L 322.128906 288.460938 L 321.78125 288.941406 L 321.179688 290.019531 L 320.949219 290.550781 L 320.699219 291.101562 L 320.46875 291.628906 L 320.351562 292.171875 L 320.167969 292.710938 L 320.050781 293.25 L 319.929688 293.789062 L 319.871094 294.390625 L 319.808594 294.929688 L 319.75 295.53125 L 319.75 296.910156 L 319.808594 297.558594 L 319.871094 298.160156 L 319.929688 298.761719 L 320.050781 299.300781 L 320.167969 299.898438 L 320.351562 300.378906 L 320.519531 300.921875 L 320.699219 301.398438 L 320.949219 301.820312 L 321.25 302.351562 L 321.539062 302.828125 L 321.839844 303.25 L 322.191406 303.671875 L 322.558594 304.089844 L 322.96875 304.511719 L 323.390625 304.929688 L 323.800781 305.289062 L 324.28125 305.589844 L 324.761719 305.949219 L 325.300781 306.25 L 325.78125 306.550781 L 326.371094 306.851562 L 326.910156 307.148438 L 327.5 307.378906 L 328.101562 307.628906 L 328.699219 307.859375 L 329.351562 308.109375 L 329.890625 308.28125 L 330.417969 308.460938 L 330.960938 308.648438 L 331.550781 308.761719 L 332.101562 308.949219 L 332.691406 309.128906 L 333.289062 309.238281 L 333.890625 309.429688 L 334.480469 309.539062 L 335.140625 309.730469 L 335.738281 309.839844 L 336.390625 310.03125 L 336.988281 310.140625 L 337.578125 310.320312 L 338.121094 310.441406 L 338.660156 310.621094 L 339.140625 310.738281 L 339.550781 310.859375 L 340.269531 311.160156 L 340.871094 311.398438 L 341.398438 311.640625 L 341.878906 311.878906 L 342.359375 312.238281 L 342.769531 312.601562 L 343.070312 313.019531 L 343.308594 313.609375 L 343.371094 314.328125 L 343.371094 314.460938 L 343.308594 315.058594 L 343.128906 315.589844 L 342.890625 316.078125 L 342.539062 316.488281 L 342.058594 316.859375 L 341.640625 317.089844 L 341.160156 317.269531 L 340.621094 317.390625 L 340.089844 317.511719 L 339.488281 317.628906 L 338.839844 317.691406 L 337.519531 317.691406 L 336.871094 317.628906 L 336.269531 317.628906 L 335.667969 317.511719 L 335.019531 317.449219 L 334.429688 317.328125 L 333.828125 317.210938 L 333.230469 317.089844 L 332.691406 316.910156 L 332.101562 316.730469 L 331.5 316.550781 L 330.960938 316.308594 L 330.417969 316.128906 L 329.890625 315.890625 L 329.351562 315.660156 L 328.808594 315.410156 L 328.339844 315.109375 L 327.800781 314.878906 L 327.320312 314.578125 L 326.789062 314.210938 L 326.308594 313.910156 L 325.78125 313.558594 L 325.300781 313.199219 L 324.761719 312.839844 L 324.28125 312.480469 L 323.917969 312.960938 L 323.511719 313.378906 L 323.148438 313.859375 L 322.730469 314.328125 L 322.371094 314.761719 L 322.019531 315.230469 L 321.601562 315.710938 L 321.25 316.128906 L 320.820312 316.609375 L 320.46875 317.03125 L 320.050781 317.511719 L 319.691406 317.988281 L 319.339844 318.410156 L 318.917969 318.890625 L 318.558594 319.371094 L 318.140625 319.789062 L 317.78125 320.261719 L 318.261719 320.691406 L 318.667969 321.039062 L 319.148438 321.410156 L 319.628906 321.761719 L 320.109375 322.121094 L 320.578125 322.480469 L 321.058594 322.78125 L 321.539062 323.078125 L 322.078125 323.378906 L 322.558594 323.679688 L 323.089844 323.980469 L 323.628906 324.21875 L 324.167969 324.519531 L 324.699219 324.761719 L 325.238281 325 L 325.828125 325.230469 L 326.371094 325.410156 L 326.96875 325.601562 L 327.5 325.828125 L 328.101562 326.011719 L 328.699219 326.199219 L 329.230469 326.308594 L 329.828125 326.488281 L 330.417969 326.609375 L 331.621094 326.851562 L 332.21875 326.980469 L 332.820312 327.03125 L 333.410156 327.148438 L 334.058594 327.210938 L 334.660156 327.28125 L 335.25 327.328125 L 335.910156 327.328125 L 336.511719 327.390625 L 339.011719 327.390625 L 339.609375 327.328125 L 340.269531 327.28125 L 340.871094 327.210938 L 341.398438 327.148438 L 341.988281 327.089844 L 342.589844 326.980469 L 343.128906 326.851562 L 343.671875 326.730469 L 344.261719 326.609375 L 344.800781 326.429688 L 345.398438 326.25 L 346 326.078125 L 346.589844 325.828125 L 347.191406 325.601562 L 347.71875 325.300781 L 348.261719 325.058594 L 348.800781 324.761719 L 349.269531 324.398438 L 349.75 324.101562 L 350.230469 323.738281 L 350.640625 323.378906 L 351.121094 322.960938 L 351.480469 322.609375 L 351.898438 322.179688 L 352.25 321.761719 L 352.550781 321.289062 L 352.910156 320.808594 L 353.210938 320.328125 L 353.511719 319.851562 L 353.75 319.308594 L 353.980469 318.828125 L 354.230469 318.289062 L 354.410156 317.691406 L 354.519531 317.148438 L 354.699219 316.550781 L 354.820312 315.949219 L 354.878906 315.289062 L 354.941406 314.699219 L 355 314.039062 L 355 312.601562 Z M 354.941406 311.941406 "/>
<path style=" stroke:none;fill-rule:nonzero;fill:rgb(100%,100%,100%);fill-opacity:1;" d="M 312.511719 316.789062 L 290.328125 316.789062 L 290.328125 309.359375 L 311.078125 309.359375 L 311.078125 300.078125 L 290.328125 300.078125 L 290.328125 292.949219 L 313.410156 292.949219 L 313.410156 283.070312 L 278.929688 283.070312 L 278.929688 326.679688 L 313.710938 326.679688 L 313.710938 316.789062 Z M 312.511719 316.789062 "/>
<path style=" stroke:none;fill-rule:nonzero;fill:rgb(100%,100%,100%);fill-opacity:1;" d="M 268.941406 283.070312 L 257.910156 283.070312 L 257.609375 283.550781 L 257.308594 284.078125 L 256.949219 284.558594 L 256.648438 285.101562 L 256.351562 285.578125 L 256.050781 286.121094 L 255.699219 286.589844 L 255.398438 287.140625 L 255.101562 287.609375 L 254.800781 288.089844 L 254.441406 288.628906 L 254.148438 289.109375 L 253.851562 289.648438 L 253.550781 290.128906 L 253.191406 290.660156 L 252.589844 291.621094 L 252.289062 292.160156 L 251.988281 292.640625 L 251.640625 293.171875 L 251.339844 293.648438 L 251.039062 294.191406 L 250.75 294.671875 L 250.378906 295.210938 L 250.089844 295.679688 L 249.789062 296.160156 L 249.488281 296.699219 L 249.140625 297.179688 L 248.839844 297.71875 L 248.539062 298.199219 L 248.238281 298.730469 L 247.878906 299.21875 L 247.578125 299.75 L 247.28125 300.230469 L 246.988281 299.75 L 246.691406 299.21875 L 246.328125 298.730469 L 246.039062 298.199219 L 245.738281 297.71875 L 245.441406 297.179688 L 245.140625 296.699219 L 244.78125 296.160156 L 244.480469 295.679688 L 244.179688 295.210938 L 243.890625 294.671875 L 243.589844 294.191406 L 243.230469 293.648438 L 242.929688 293.171875 L 242.628906 292.640625 L 242.339844 292.160156 L 242.039062 291.621094 L 241.679688 291.140625 L 241.378906 290.660156 L 241.078125 290.128906 L 240.78125 289.648438 L 240.429688 289.109375 L 240.128906 288.628906 L 239.828125 288.089844 L 239.53125 287.609375 L 239.230469 287.140625 L 238.878906 286.589844 L 238.578125 286.121094 L 238.28125 285.578125 L 237.988281 285.101562 L 237.679688 284.558594 L 237.320312 284.078125 L 237.019531 283.550781 L 236.730469 283.070312 L 224.5 283.070312 L 224.5 326.679688 L 235.839844 326.679688 L 235.839844 301.011719 L 236.191406 301.488281 L 236.488281 302.03125 L 236.851562 302.511719 L 237.148438 303.050781 L 237.5 303.53125 L 237.800781 304.070312 L 238.160156 304.550781 L 238.460938 305.089844 L 238.820312 305.558594 L 239.109375 306.109375 L 239.46875 306.589844 L 239.769531 307.128906 L 240.128906 307.609375 L 240.429688 308.148438 L 240.78125 308.621094 L 241.078125 309.171875 L 241.441406 309.648438 L 241.800781 310.191406 L 242.101562 310.671875 L 242.449219 311.210938 L 242.75 311.691406 L 243.121094 312.230469 L 243.410156 312.710938 L 243.769531 313.25 L 244.058594 313.730469 L 244.429688 314.269531 L 244.730469 314.75 L 245.078125 315.289062 L 245.378906 315.769531 L 245.738281 316.308594 L 246.039062 316.789062 L 246.390625 317.328125 L 246.691406 317.808594 L 247.050781 318.351562 L 247.28125 318.351562 L 247.578125 317.871094 L 247.941406 317.328125 L 248.238281 316.851562 L 248.601562 316.371094 L 248.890625 315.828125 L 249.261719 315.351562 L 249.550781 314.871094 L 249.851562 314.328125 L 250.210938 313.851562 L 250.511719 313.371094 L 250.871094 312.890625 L 251.167969 312.351562 L 251.519531 311.871094 L 251.820312 311.390625 L 252.121094 310.851562 L 252.480469 310.371094 L 252.78125 309.890625 L 253.128906 309.351562 L 253.429688 308.871094 L 253.789062 308.390625 L 254.089844 307.851562 L 254.390625 307.371094 L 254.738281 306.890625 L 255.039062 306.351562 L 255.398438 305.859375 L 255.699219 305.390625 L 256.050781 304.910156 L 256.351562 304.371094 L 256.648438 303.890625 L 257.011719 303.398438 L 257.308594 302.871094 L 257.660156 302.390625 L 257.960938 301.910156 L 258.320312 301.371094 L 258.621094 300.890625 L 258.621094 326.679688 L 270.128906 326.679688 L 270.128906 283.070312 Z M 268.941406 283.070312 "/>
<path style=" stroke:none;fill-rule:nonzero;fill:rgb(100%,100%,100%);fill-opacity:1;" d="M 219.171875 325.601562 L 218.929688 325.058594 L 218.75 324.460938 L 218.511719 323.921875 L 218.269531 323.378906 L 218.03125 322.839844 L 217.789062 322.300781 L 217.550781 321.761719 L 217.308594 321.160156 L 217.070312 320.621094 L 216.890625 320.078125 L 216.648438 319.539062 L 216.171875 318.460938 L 215.921875 317.839844 L 215.679688 317.300781 L 215.441406 316.761719 L 215.199219 316.21875 L 215.03125 315.679688 L 214.789062 315.140625 L 214.550781 314.539062 L 214.308594 314 L 214.070312 313.460938 L 213.828125 312.921875 L 213.589844 312.378906 L 213.351562 311.839844 L 213.171875 311.238281 L 212.929688 310.699219 L 212.691406 310.160156 L 212.449219 309.621094 L 212.210938 309.078125 L 211.96875 308.539062 L 211.730469 307.941406 L 211.488281 307.398438 L 211.308594 306.859375 L 211.070312 306.320312 L 210.828125 305.78125 L 210.589844 305.238281 L 210.351562 304.640625 L 210.199219 304.199219 L 209.960938 303.660156 L 209.71875 303.121094 L 209.550781 302.578125 L 209.308594 302.039062 L 209.070312 301.5 L 208.828125 300.898438 L 208.351562 299.820312 L 208.109375 299.28125 L 207.871094 298.738281 L 207.691406 298.199219 L 207.449219 297.601562 L 207.210938 297.058594 L 206.96875 296.519531 L 206.730469 295.980469 L 206.488281 295.441406 L 206.25 294.898438 L 206.011719 294.300781 L 205.828125 293.761719 L 205.589844 293.21875 L 205.351562 292.679688 L 205.109375 292.140625 L 204.871094 291.601562 L 204.628906 291 L 204.390625 290.460938 L 204.148438 289.921875 L 203.980469 289.378906 L 203.738281 288.839844 L 203.5 288.300781 L 203.261719 287.699219 L 203.019531 287.160156 L 202.78125 286.621094 L 202.539062 286.078125 L 202.300781 285.539062 L 202.199219 285.101562 L 201.960938 284.5 L 201.71875 283.960938 L 201.480469 283.421875 L 201.238281 282.878906 L 190.140625 282.878906 L 189.898438 283.421875 L 189.421875 284.5 L 189.238281 285.101562 L 189 285.628906 L 188.761719 286.171875 L 188.519531 286.710938 L 188.28125 287.25 L 188.039062 287.789062 L 187.800781 288.390625 L 187.558594 288.929688 L 187.390625 289.46875 L 187.148438 290.011719 L 186.671875 291.089844 L 186.429688 291.691406 L 186.191406 292.230469 L 185.949219 292.769531 L 185.710938 293.308594 L 185.53125 293.851562 L 185.289062 294.390625 L 185.050781 294.988281 L 184.808594 295.53125 L 184.570312 296.070312 L 184.328125 296.609375 L 184.089844 297.148438 L 183.851562 297.691406 L 183.671875 298.289062 L 183.429688 298.828125 L 183.191406 299.371094 L 182.949219 299.910156 L 182.710938 300.449219 L 182.46875 300.988281 L 182.230469 301.589844 L 181.988281 302.128906 L 181.808594 302.671875 L 181.570312 303.210938 L 181.328125 303.75 L 180.851562 304.828125 L 180.609375 305.429688 L 180.371094 305.96875 L 180.128906 306.511719 L 179.949219 307.050781 L 179.710938 307.589844 L 179.46875 308.128906 L 179.230469 308.730469 L 178.988281 309.269531 L 178.75 309.808594 L 178.511719 310.351562 L 178.269531 310.890625 L 178.089844 311.429688 L 177.851562 312.03125 L 177.609375 312.570312 L 177.371094 313.109375 L 177.128906 313.648438 L 176.890625 314.191406 L 176.648438 314.730469 L 176.410156 315.328125 L 176.160156 315.859375 L 175.921875 316.398438 L 175.679688 316.941406 L 175.441406 317.480469 L 175.199219 318.019531 L 174.960938 318.621094 L 174.878906 319 L 174.628906 319.539062 L 174.449219 320.078125 L 174.210938 320.621094 L 173.96875 321.160156 L 173.730469 321.761719 L 173.488281 322.300781 L 173.011719 323.378906 L 172.769531 323.921875 L 172.589844 324.460938 L 172.351562 325.058594 L 172.109375 325.601562 L 171.871094 326.140625 L 171.628906 326.679688 L 183.640625 326.679688 L 183.878906 326.140625 L 184.058594 325.601562 L 184.300781 325.058594 L 184.539062 324.460938 L 184.71875 323.921875 L 184.960938 323.378906 L 185.199219 322.839844 L 185.378906 322.300781 L 185.621094 321.761719 L 185.859375 321.21875 L 186.03125 320.679688 L 186.269531 320.078125 L 186.511719 319.539062 L 186.691406 319 L 186.929688 318.460938 L 204.03125 318.460938 L 204.269531 319 L 204.449219 319.539062 L 204.691406 320.078125 L 204.929688 320.679688 L 205.109375 321.21875 L 205.351562 321.761719 L 205.589844 322.300781 L 205.761719 322.839844 L 206 323.378906 L 206.238281 323.921875 L 206.410156 324.460938 L 206.648438 325.058594 L 206.890625 325.601562 L 207.070312 326.140625 L 207.308594 326.679688 L 219.589844 326.679688 L 219.351562 326.140625 Z M 199.96875 309.238281 L 190.5 309.238281 L 190.738281 308.699219 L 190.921875 308.160156 L 191.160156 307.558594 L 191.398438 307.019531 L 191.570312 306.480469 L 191.808594 305.941406 L 192.050781 305.339844 L 192.289062 304.800781 L 192.46875 304.261719 L 192.710938 303.71875 L 192.949219 303.179688 L 193.121094 302.578125 L 193.359375 302.039062 L 193.601562 301.5 L 193.78125 300.960938 L 194.019531 300.421875 L 194.261719 299.820312 L 194.5 299.28125 L 194.671875 298.738281 L 194.910156 298.199219 L 195.148438 297.601562 L 195.328125 297.058594 L 195.570312 296.519531 L 195.808594 297.058594 L 195.988281 297.601562 L 196.230469 298.199219 L 196.46875 298.738281 L 196.648438 299.28125 L 196.890625 299.820312 L 197.128906 300.421875 L 197.308594 300.960938 L 197.550781 301.5 L 197.789062 302.039062 L 197.960938 302.578125 L 198.21875 303.171875 L 198.398438 303.710938 L 198.640625 304.25 L 198.878906 304.789062 L 199.058594 305.328125 L 199.300781 305.929688 L 199.539062 306.46875 L 199.71875 307.011719 L 199.960938 307.550781 L 200.199219 308.148438 L 200.378906 308.691406 L 200.621094 309.230469 Z M 199.96875 309.238281 "/>
<path style=" stroke:none;fill-rule:nonzero;fill:rgb(100%,100%,100%);fill-opacity:1;" d="M 166.03125 301.28125 L 147.539062 301.28125 L 147.539062 310.03125 L 156.25 310.03125 L 156.25 315.480469 L 155.78125 315.78125 L 155.351562 316.011719 L 154.820312 316.261719 L 154.339844 316.488281 L 153.808594 316.730469 L 153.269531 316.859375 L 152.679688 317.03125 L 152.078125 317.148438 L 151.480469 317.269531 L 150.890625 317.328125 L 150.230469 317.390625 L 149.570312 317.449219 L 148.199219 317.449219 L 147.539062 317.390625 L 146.949219 317.328125 L 146.359375 317.210938 L 145.761719 317.089844 L 144.558594 316.730469 L 144.019531 316.488281 L 143.488281 316.261719 L 142.949219 316.011719 L 142.46875 315.710938 L 142 315.410156 L 141.519531 315.058594 L 141.039062 314.699219 L 140.628906 314.328125 L 140.261719 313.910156 L 139.851562 313.5 L 139.488281 313.078125 L 139.128906 312.601562 L 138.828125 312.121094 L 138.539062 311.640625 L 138.238281 311.101562 L 138 310.558594 L 137.761719 309.960938 L 137.589844 309.480469 L 137.410156 308.949219 L 137.289062 308.410156 L 137.160156 307.859375 L 137.039062 307.328125 L 136.988281 306.730469 L 136.929688 306.191406 L 136.871094 305.589844 L 136.871094 304.210938 L 136.929688 303.609375 L 136.988281 303.011719 L 137.109375 302.351562 L 137.21875 301.820312 L 137.339844 301.21875 L 137.519531 300.621094 L 137.761719 300.078125 L 137.941406 299.539062 L 138.179688 299 L 138.480469 298.53125 L 138.769531 297.980469 L 139.070312 297.511719 L 139.371094 297.078125 L 139.730469 296.609375 L 140.148438 296.179688 L 140.511719 295.769531 L 140.917969 295.410156 L 141.761719 294.691406 L 142.238281 294.390625 L 142.710938 294.089844 L 143.191406 293.789062 L 143.730469 293.550781 L 144.261719 293.308594 L 145.339844 292.949219 L 145.871094 292.828125 L 146.46875 292.710938 L 147.011719 292.648438 L 147.601562 292.589844 L 148.859375 292.589844 L 149.511719 292.648438 L 150.167969 292.710938 L 150.769531 292.769531 L 151.359375 292.890625 L 151.960938 293.011719 L 152.5 293.128906 L 153.03125 293.308594 L 153.570312 293.488281 L 154.039062 293.671875 L 155 294.148438 L 155.53125 294.449219 L 156.019531 294.75 L 156.488281 295.050781 L 156.96875 295.351562 L 157.441406 295.710938 L 157.921875 296.011719 L 158.398438 296.429688 L 158.878906 296.78125 L 159.238281 296.308594 L 159.648438 295.878906 L 160.011719 295.410156 L 160.429688 294.929688 L 160.78125 294.449219 L 161.140625 294.03125 L 161.558594 293.550781 L 161.921875 293.078125 L 162.339844 292.589844 L 162.691406 292.171875 L 163.050781 291.699219 L 163.46875 291.210938 L 163.820312 290.800781 L 164.179688 290.320312 L 164.601562 289.828125 L 164.960938 289.359375 L 165.378906 288.941406 L 165.738281 288.460938 L 165.261719 288.101562 L 164.78125 287.679688 L 163.820312 286.960938 L 163.351562 286.660156 L 162.871094 286.300781 L 162.339844 286 L 161.859375 285.699219 L 161.328125 285.398438 L 160.851562 285.101562 L 160.308594 284.859375 L 159.769531 284.570312 L 159.238281 284.320312 L 158.699219 284.078125 L 158.160156 283.851562 L 157.628906 283.671875 L 157.140625 283.480469 L 156.609375 283.371094 L 156.070312 283.191406 L 155.53125 283.070312 L 155 282.949219 L 154.460938 282.828125 L 153.871094 282.699219 L 153.269531 282.589844 L 152.730469 282.53125 L 152.078125 282.398438 L 151.480469 282.351562 L 150.890625 282.351562 L 150.230469 282.289062 L 149.570312 282.230469 L 147.011719 282.230469 L 146.410156 282.289062 L 145.808594 282.351562 L 145.21875 282.398438 L 144.621094 282.46875 L 144.019531 282.589844 L 143.429688 282.648438 L 142.828125 282.769531 L 142.300781 282.949219 L 141.699219 283.070312 L 141.160156 283.25 L 140.628906 283.371094 L 140.089844 283.601562 L 139.488281 283.78125 L 139.019531 283.96875 L 138.417969 284.269531 L 137.878906 284.5 L 137.339844 284.75 L 136.808594 285.050781 L 136.269531 285.351562 L 135.730469 285.648438 L 135.261719 285.949219 L 134.78125 286.238281 L 134.300781 286.601562 L 133.820312 286.898438 L 133.351562 287.261719 L 132.929688 287.621094 L 132.449219 288.039062 L 132.039062 288.398438 L 131.621094 288.820312 L 131.199219 289.230469 L 130.839844 289.648438 L 130.429688 290.078125 L 130.070312 290.5 L 129.710938 290.980469 L 129.351562 291.449219 L 128.988281 291.929688 L 128.691406 292.410156 L 128.390625 292.890625 L 128.101562 293.371094 L 127.800781 293.851562 L 127.5 294.390625 L 127.269531 294.929688 L 127.03125 295.46875 L 126.78125 296.011719 L 126.550781 296.550781 L 126.308594 297.148438 L 126.128906 297.679688 L 125.949219 298.28125 L 125.769531 298.828125 L 125.660156 299.421875 L 125.46875 300.019531 L 125.359375 300.558594 L 125.289062 301.160156 L 125.167969 301.75 L 125.121094 302.410156 L 125.058594 303.011719 L 125.058594 303.609375 L 125 304.269531 L 125 306.25 L 125.058594 306.851562 L 125.121094 307.449219 L 125.167969 308.050781 L 125.238281 308.578125 L 125.359375 309.179688 L 125.417969 309.730469 L 125.539062 310.320312 L 125.71875 310.859375 L 125.839844 311.460938 L 126.011719 312 L 126.128906 312.539062 L 126.371094 313.078125 L 126.550781 313.558594 L 126.78125 314.101562 L 127.03125 314.628906 L 127.269531 315.179688 L 127.5 315.710938 L 127.800781 316.191406 L 128.101562 316.730469 L 128.390625 317.210938 L 128.691406 317.691406 L 129.050781 318.171875 L 129.351562 318.648438 L 129.710938 319.070312 L 130.070312 319.550781 L 130.429688 319.960938 L 130.839844 320.390625 L 131.261719 320.808594 L 131.679688 321.160156 L 132.101562 321.589844 L 132.511719 321.941406 L 132.929688 322.308594 L 133.410156 322.660156 L 133.890625 323.019531 L 134.359375 323.378906 L 135.320312 323.980469 L 135.851562 324.28125 L 136.328125 324.578125 L 136.871094 324.878906 L 137.410156 325.109375 L 137.941406 325.359375 L 138.480469 325.601562 L 139.070312 325.828125 L 139.609375 326.011719 L 140.148438 326.25 L 140.691406 326.429688 L 141.28125 326.550781 L 141.820312 326.730469 L 142.417969 326.851562 L 142.949219 326.980469 L 143.550781 327.089844 L 144.148438 327.210938 L 144.75 327.28125 L 145.339844 327.328125 L 145.929688 327.390625 L 146.589844 327.449219 L 147.179688 327.511719 L 149.75 327.511719 L 150.398438 327.449219 L 151 327.390625 L 151.660156 327.328125 L 152.25 327.28125 L 152.910156 327.210938 L 153.511719 327.148438 L 154.109375 327.03125 L 154.699219 326.910156 L 155.230469 326.789062 L 155.828125 326.679688 L 156.371094 326.488281 L 156.96875 326.308594 L 157.5 326.128906 L 158.039062 325.949219 L 158.578125 325.78125 L 159.109375 325.53125 L 159.710938 325.300781 L 160.25 325.058594 L 160.851562 324.820312 L 161.378906 324.519531 L 161.921875 324.28125 L 162.460938 323.980469 L 162.988281 323.679688 L 163.53125 323.378906 L 164 323.078125 L 164.480469 322.78125 L 164.960938 322.421875 L 165.441406 322.121094 L 165.910156 321.761719 L 166.328125 321.460938 L 166.808594 321.109375 L 167.21875 320.738281 L 167.21875 301.28125 Z M 166.03125 301.28125 "/>
</g>
</svg>
