<?xml version="1.0" encoding="UTF-8"?>
<svg xmlns="http://www.w3.org/2000/svg" xmlns:xlink="http://www.w3.org/1999/xlink" width="500pt" height="500pt" viewBox="0 0 500 500" version="1.1">
<g id="surface10689453">
<path style=" stroke:none;fill-rule:nonzero;fill:rgb(75.294118%,75.294118%,75.294118%);fill-opacity:1;" d="M 250 20 C 123.171875 20 20 123.179688 20 250 C 20 376.820312 123.171875 480 250 480 C 376.828125 480 480 376.820312 480 250 C 480 123.179688 376.828125 20 250 20 Z M 115.996094 130 L 174.003906 130 C 182.832031 130 190 137.15625 190 145.996094 L 190 244.003906 C 190 252.84375 182.84375 260 174.003906 260 L 100 260 L 100 240 L 164.003906 240 C 167.3125 240 170 237.3125 170 234.003906 L 170 155.996094 C 170 152.6875 167.3125 150 164.003906 150 L 125.996094 150 C 122.6875 150 120 152.6875 120 155.996094 L 120 194.003906 C 120 197.3125 122.6875 200 125.996094 200 L 155 200 L 155 220 L 115.996094 220 C 107.167969 220 100 212.84375 100 204.003906 L 100 145.996094 C 100 137.15625 107.15625 130 115.996094 130 Z M 220.996094 130 L 279.003906 130 C 287.824219 130 295 137.175781 295 145.996094 L 295 204.003906 C 295 212.824219 287.824219 220 279.003906 220 L 220.996094 220 C 212.175781 220 205 212.824219 205 204.003906 L 205 145.996094 C 205 137.175781 212.175781 130 220.996094 130 Z M 325.996094 130 L 384.003906 130 C 392.832031 130 400 137.15625 400 145.996094 L 400 244.003906 C 400 252.84375 392.84375 260 384.003906 260 L 310 260 L 310 240 L 374.003906 240 C 377.3125 240 380 237.3125 380 234.003906 L 380 155.996094 C 380 152.6875 377.3125 150 374.003906 150 L 335.996094 150 C 332.6875 150 330 152.6875 330 155.996094 L 330 194.003906 C 330 197.3125 332.6875 200 335.996094 200 L 365 200 L 365 220 L 325.996094 220 C 317.167969 220 310 212.84375 310 204.003906 L 310 145.996094 C 310 137.15625 317.15625 130 325.996094 130 Z M 230.996094 150 C 227.6875 150 225 152.6875 225 155.996094 L 225 194.003906 C 225 197.3125 227.6875 200 230.996094 200 L 269.003906 200 C 272.3125 200 275 197.3125 275 194.003906 L 275 155.996094 C 275 152.6875 272.3125 150 269.003906 150 Z M 115.996094 280 L 175 280 L 175 300 L 125.996094 300 C 122.6875 300 120 302.6875 120 305.996094 L 120 344.003906 C 120 347.3125 122.6875 350 125.996094 350 L 175 350 L 175 370 L 115.996094 370 C 107.167969 370 100 362.84375 100 354.003906 L 100 295.996094 C 100 287.167969 107.15625 280 115.996094 280 Z M 205.996094 280 L 264.003906 280 C 272.824219 280 280 287.175781 280 295.996094 L 280 354.003906 C 280 362.824219 272.824219 370 264.003906 370 L 205.996094 370 C 197.175781 370 190 362.824219 190 354.003906 L 190 295.996094 C 190 287.175781 197.175781 280 205.996094 280 Z M 310.996094 280 L 400 280 L 400 370 L 380 370 L 380 300 L 363.496094 300 C 360.1875 300 357.5 302.6875 357.5 305.996094 L 357.5 370 L 337.5 370 L 337.5 300 L 320.996094 300 C 317.6875 300 315 302.6875 315 305.996094 L 315 370 L 295 370 L 295 295.996094 C 295 287.167969 302.15625 280 310.996094 280 Z M 215.996094 300 C 212.6875 300 210 302.6875 210 305.996094 L 210 344.003906 C 210 347.3125 212.6875 350 215.996094 350 L 254.003906 350 C 257.3125 350 260 347.3125 260 344.003906 L 260 305.996094 C 260 302.6875 257.3125 300 254.003906 300 Z M 215.996094 300 "/>
</g>
</svg>
