<?xml version="1.0" encoding="UTF-8"?>
<svg xmlns="http://www.w3.org/2000/svg" xmlns:xlink="http://www.w3.org/1999/xlink" width="500pt" height="500pt" viewBox="0 0 500 500" version="1.1">
<g id="surface10386136">
<path style=" stroke:none;fill-rule:nonzero;fill:rgb(75.294118%,75.294118%,75.294118%);fill-opacity:1;" d="M 71.25 20 L 287.8125 235 L 347.1875 175.625 L 84.6875 24.0625 C 80.3125 21.523438 75.625 20.117188 71.25 20 Z M 53.125 30 C 51.171875 33.476562 50 37.578125 50 42.1875 L 50 460 C 50 463.359375 50.703125 466.367188 51.875 469.0625 L 273.4375 249.0625 Z M 365.3125 185.9375 L 301.875 249.0625 L 365.3125 311.875 L 442.8125 267.5 C 453.828125 261.132812 455.390625 253.046875 455.3125 248.75 C 455.195312 241.640625 450.703125 235 443.125 230.9375 C 436.523438 227.382812 387.5 198.828125 365.3125 185.9375 Z M 287.8125 263.125 L 69.375 479.6875 C 73.007812 479.492188 76.953125 478.710938 80.625 476.5625 C 89.179688 471.601562 262.1875 371.5625 262.1875 371.5625 L 347.5 322.5 Z M 287.8125 263.125 "/>
</g>
</svg>
