<?xml version="1.0" encoding="UTF-8"?>
<svg xmlns="http://www.w3.org/2000/svg" xmlns:xlink="http://www.w3.org/1999/xlink" width="480pt" height="480pt" viewBox="0 0 480 480" version="1.1">
<g id="surface10387581">
<path style=" stroke:none;fill-rule:nonzero;fill:rgb(75.294118%,75.294118%,75.294118%);fill-opacity:1;" d="M 240 64 C 186.207031 64 112.878906 64.859375 98.0625 66.15625 C 81.308594 76.09375 48.320312 110.390625 48 120.34375 L 48 136.8125 C 48 157.675781 67.492188 176 85.1875 176 C 106.453125 176 124.1875 158.378906 124.1875 137.46875 C 124.1875 158.378906 141.265625 176 162.53125 176 C 183.796875 176 200.375 158.378906 200.375 137.46875 C 200.375 158.378906 218.546875 176 239.8125 176 L 240.21875 176 C 261.484375 176 279.65625 158.378906 279.65625 137.46875 C 279.65625 158.378906 296.222656 176 317.46875 176 C 338.734375 176 355.84375 158.378906 355.84375 137.46875 C 355.84375 158.378906 373.546875 176 394.8125 176 C 412.492188 176 432 157.675781 432 136.8125 L 432 120.34375 C 431.679688 110.40625 398.691406 76.09375 381.9375 66.15625 C 329.875 64.316406 293.792969 64 240 64 Z M 199.75 186.1875 C 197.71875 189.722656 195.195312 192.964844 192.25 195.8125 C 184.21875 203.652344 173.222656 208.53125 161.09375 208.53125 C 149.429688 208.546875 138.210938 203.972656 129.875 195.8125 C 126.964844 192.964844 124.765625 189.925781 122.75 186.375 C 120.734375 189.925781 117.898438 192.949219 114.96875 195.8125 C 106.632812 203.972656 95.414062 208.546875 83.75 208.53125 C 82.292969 208.53125 80.792969 208.121094 79.5625 207.6875 C 77.851562 225.480469 77.476562 232.664062 77.21875 245.0625 L 77.21875 245.125 C 77.1875 251.429688 77.15625 256.613281 77.125 263.8125 C 77.460938 301.15625 73.433594 384.847656 93.59375 405.40625 C 124.839844 412.671875 182.320312 415.984375 240 416 C 297.679688 415.984375 355.160156 412.65625 386.40625 405.375 C 406.566406 384.816406 402.539062 301.109375 402.875 263.78125 C 402.84375 256.582031 402.8125 251.429688 402.78125 245.125 L 402.78125 245.0625 C 402.523438 232.664062 401.460938 225.480469 399.75 207.6875 C 398.519531 208.105469 396.988281 208.5 395.53125 208.5 C 383.867188 208.515625 372.648438 203.972656 364.3125 195.8125 C 361.402344 192.964844 358.59375 189.925781 356.5625 186.375 L 356.53125 186.375 C 354.5 189.925781 352.300781 192.964844 349.40625 195.8125 C 341.070312 203.972656 329.851562 208.53125 318.1875 208.53125 C 306.058594 208.53125 295.0625 203.667969 287.03125 195.8125 C 284.101562 192.964844 281.609375 189.722656 279.5625 186.1875 C 277.546875 189.722656 275.050781 192.964844 272.15625 195.8125 C 263.820312 203.972656 252.601562 208.53125 240.9375 208.53125 C 240.519531 208.53125 240.070312 208.515625 239.65625 208.5 C 239.238281 208.515625 238.808594 208.53125 238.375 208.53125 C 226.710938 208.546875 215.492188 203.972656 207.15625 195.8125 C 204.246094 192.964844 201.75 189.722656 199.75 186.1875 Z M 175.46875 234.3125 L 175.46875 234.34375 C 186.859375 234.359375 196.988281 234.351562 209.53125 248.03125 C 219.394531 246.992188 229.691406 246.453125 240 246.46875 L 240.03125 246.46875 C 250.339844 246.453125 260.636719 246.992188 270.5 248.03125 C 283.042969 234.351562 293.140625 234.359375 304.53125 234.34375 L 304.5625 234.34375 L 304.5625 234.3125 C 309.9375 234.3125 331.476562 234.308594 346.46875 276.4375 L 362.5625 334.25 C 374.5 377.242188 358.742188 378.28125 339.09375 378.3125 C 309.941406 377.222656 293.8125 356.074219 293.8125 334.90625 C 277.667969 337.546875 258.863281 338.875 240.03125 338.875 C 221.199219 338.875 202.347656 337.546875 186.21875 334.90625 C 186.21875 356.074219 170.089844 377.222656 140.9375 378.3125 C 121.273438 378.28125 105.5 377.242188 117.4375 334.25 L 133.5625 276.4375 C 148.554688 234.308594 170.078125 234.3125 175.46875 234.3125 Z M 240 266.125 C 239.984375 266.15625 214 290.019531 209.34375 298.5 L 226.34375 297.8125 L 226.34375 312.625 C 226.34375 313.3125 233.183594 313.070312 240 312.75 C 246.832031 313.070312 253.65625 313.3125 253.65625 312.625 L 253.65625 297.8125 L 270.65625 298.5 C 266 290.003906 240 266.125 240 266.125 Z M 240 266.125 "/>
</g>
</svg>
