<?xml version="1.0" standalone="no"?>
<!DOCTYPE svg PUBLIC "-//W3C//DTD SVG 20010904//EN"
 "http://www.w3.org/TR/2001/REC-SVG-20010904/DTD/svg10.dtd">
<svg version="1.0" xmlns="http://www.w3.org/2000/svg"
 width="1280.000000pt" height="985.000000pt" viewBox="0 0 1280.000000 985.000000"
 preserveAspectRatio="xMidYMid meet" style="fill: #c0c0c0">
<metadata>
Created by potrace 1.16, written by Peter Selinger 2001-2019
</metadata>
<g transform="translate(0.000000,985.000000) scale(0.100000,-0.100000)" stroke="none">
<path d="M4520 9839 c-1317 -114 -2505 -724 -3353 -1721 -673 -793 -1067
-1748 -1157 -2803 -13 -155 -13 -625 0 -780 43 -503 150 -968 327 -1420 73
-186 250 -546 357 -724 328 -547 772 -1038 1290 -1423 619 -462 1347 -773
2110 -903 374 -63 260 -60 2296 -60 2030 0 1919 -3 2315 60 635 102 1311 367
1869 733 622 408 1145 952 1531 1592 101 168 282 532 350 705 181 458 292 935
335 1440 13 155 13 625 0 780 -101 1189 -590 2253 -1420 3086 -400 401 -799
690 -1298 939 -564 281 -1156 445 -1807 500 -145 12 -3603 11 -3745 -1z m3675
-1239 c875 -79 1664 -449 2285 -1070 294 -294 512 -594 696 -962 204 -407 332
-860 374 -1318 13 -148 13 -502 0 -650 -94 -1041 -627 -1996 -1465 -2626 -432
-325 -949 -557 -1480 -663 -344 -69 -200 -65 -2115 -69 -1253 -2 -1774 0
-1875 8 -628 52 -1234 267 -1763 627 -920 625 -1508 1631 -1603 2741 -15 181
-6 613 16 772 97 703 355 1305 794 1855 124 156 393 424 551 551 576 459 1255
735 1975 803 131 12 3475 13 3610 1z"/>
<path d="M3960 4925 l0 -2325 720 0 720 0 2 1610 3 1609 999 -1609 999 -1610
719 0 718 0 0 2325 0 2325 -720 0 -720 0 -2 -1605 -3 -1604 -990 1602 -991
1602 -727 3 -727 2 0 -2325z"/>
</g>
</svg>
