<?xml version="1.0" encoding="UTF-8"?>
<svg xmlns="http://www.w3.org/2000/svg" xmlns:xlink="http://www.w3.org/1999/xlink" width="208pt" height="208pt" viewBox="0 0 208 208" version="1.1">
<g id="surface10710865">
<path style=" stroke:none;fill-rule:nonzero;fill:rgb(75.294118%,75.294118%,75.294118%);fill-opacity:1;" d="M 39 0 C 17.46875 0 0 17.46875 0 39 L 0 106.75 L 40.5 118.5 C 47.9375 109.3125 59.25 103.5 72 103.5 C 72.40625 103.5 72.84375 103.5 73.25 103.5 L 95.5 72.5 C 95.5 72.3125 95.5 72.1875 95.5 72 C 95.5 45.25 117.21875 23.5 144 23.5 C 170.78125 23.5 192.5 45.25 192.5 72 C 192.5 98.78125 170.78125 120.5 144 120.5 C 143.75 120.5 143.5 120.5 143.25 120.5 L 112.5 142.75 C 112.53125 143.15625 112.5 143.59375 112.5 144 C 112.5 166.40625 94.40625 184.5 72 184.5 C 51.25 184.5 34.40625 168.875 32 148.75 L 0 139.5 L 0 169 C 0 190.53125 17.46875 208 39 208 L 169 208 C 190.53125 208 208 190.53125 208 169 L 208 39 C 208 17.46875 190.53125 0 169 0 Z M 144 38.25 C 125.40625 38.25 110.25 53.375 110.25 72 C 110.25 90.625 125.40625 105.75 144 105.75 C 162.59375 105.75 177.75 90.625 177.75 72 C 177.75 53.375 162.59375 38.25 144 38.25 Z M 144 48.5 C 156.9375 48.5 167.5 59.0625 167.5 72 C 167.5 84.9375 156.9375 95.5 144 95.5 C 131.09375 95.5 120.5 84.9375 120.5 72 C 120.5 59.0625 131.09375 48.5 144 48.5 Z M 72 116.5 C 65.40625 116.5 59.5 118.875 54.75 122.75 L 75 128.5 C 75.15625 128.53125 75.34375 128.71875 75.5 128.75 L 76 128.75 C 82.8125 130.5 87.75 136.6875 87.75 144 C 87.75 152.6875 80.6875 159.75 72 159.75 C 70.34375 159.75 68.75 159.5 67.25 159 L 46 153 C 49.71875 163.84375 59.90625 171.5 72 171.5 C 87.25 171.5 99.5 159.25 99.5 144 C 99.5 128.75 87.25 116.5 72 116.5 Z M 72 116.5 "/>
</g>
</svg>
