<?xml version="1.0" encoding="UTF-8"?>
<svg xmlns="http://www.w3.org/2000/svg" xmlns:xlink="http://www.w3.org/1999/xlink" width="208pt" height="208pt" viewBox="0 0 208 208" version="1.1">
<g id="surface10695213">
<path style=" stroke:none;fill-rule:nonzero;fill:rgb(75.294118%,75.294118%,75.294118%);fill-opacity:1;" d="M 46.9375 18.375 C 46.84375 18.4375 46.75 18.53125 46.65625 18.625 C 47.25 18 48.09375 17.34375 48.625 16.96875 C 64.75 6.5 83.375 0.90625 104.03125 0.90625 C 123.34375 0.90625 141.4375 6.25 156.875 15.53125 C 158 16.1875 161.0625 18.28125 162.625 20.1875 C 147.71875 3.75 103.90625 39.03125 103.90625 39.03125 C 88.78125 27.34375 74.84375 19.375 64.46875 16.53125 C 55.78125 14.15625 49.78125 16.15625 46.9375 18.375 Z M 179.5 33.90625 C 179.0625 33.40625 178.5625 32.9375 178.09375 32.40625 C 174.34375 28.28125 169.71875 27.28125 165.53125 27.53125 C 161.71875 28.75 144.15625 35.0625 122.53125 55.5 C 122.53125 55.5 146.875 79.1875 161.8125 103.40625 C 176.71875 127.625 185.625 146.65625 180.15625 173.0625 C 196.78125 154.78125 206.90625 130.5 206.90625 103.8125 C 206.90625 76.84375 196.53125 52.25 179.5 33.90625 Z M 142.3125 113.75 C 135.71875 106.3125 125.875 95.71875 112.90625 82.78125 C 110.0625 79.96875 107.0625 77.03125 103.90625 73.96875 C 103.90625 73.96875 99.15625 78.71875 93 84.96875 L 93 84.9375 C 85.09375 92.9375 74.84375 103.34375 69.15625 109.4375 C 59.03125 120.25 30 154.1875 28.375 173.21875 C 28.375 173.21875 21.90625 158.125 36.09375 123.3125 C 45.34375 100.53125 73.3125 66.375 85 55.21875 C 85 55.21875 74.3125 43.5 60.9375 35.375 L 60.84375 35.34375 C 60.84375 35.34375 60.6875 35.21875 60.46875 35.09375 C 54.03125 31.25 46.96875 28.28125 40.21875 27.875 C 33.3125 28.375 28.9375 33.4375 28.9375 33.4375 C 11.65625 51.84375 1.09375 76.59375 1.09375 103.84375 C 1.09375 160.6875 47.15625 206.75 104.03125 206.75 C 134.1875 206.75 161.3125 193.75 180.15625 173.0625 C 180.15625 173.03125 178 159.46875 164.15625 140 C 160.875 135.4375 149 121.21875 142.3125 113.75 Z M 142.3125 113.75 "/>
</g>
</svg>
