<?xml version="1.0" encoding="UTF-8" standalone="yes"?>
<!-- Created with sK1/UniConvertor (http://sk1project.org/) -->
<svg xmlns="http://www.w3.org/2000/svg" xmlns:xlink="http://www.w3.org/1999/xlink"
  width="400pt" height="180pt" viewBox="0 0 400 180"
  fill-rule="evenodd">
<g>
<g>
<path style="stroke:none; fill:#ffffff" d="M 57.9 33.3C 42.7 37.6 35 49 39.5 60.6C 41.6 66.3 45.7 69 52 69C 57.2 69 60.3 67.2 62.5 63C 66.5 55.3 61.5 45 53.8 45C 49.8 45 49.5 43.4 52.8 40.1C 58.3 34.6 69.5 33.7 73.9 38.4C 77.1 41.8 78 46.3 78 59.7C 78 73.1 76.7 78.4 72.7 81C 71.4 81.9 66.8 82.6 61.1 83C 48.3 83.7 47.9 85.6 60.4 86.2C 71.1 86.8 75.2 88.5 78.3 93.7C 79.9 96.5 80.1 99.1 80.1 113.9C 80 123.4 79.5 132.3 78.8 134.2C 76.3 141.7 69 145.8 60.6 144.5C 55.1 143.6 48.9 140.8 46.6 138.1C 44.7 136 44.7 136 46.6 136C 50.4 135.9 56.9 132.2 58.4 129.1C 63.9 118.6 53.8 107.2 42.6 111.1C 31.8 114.9 30.1 129.2 39.4 138.5C 46.1 145.2 53 147.4 67 147.4C 94 147.4 110.8 136.4 112.7 117.6C 114.3 102 104.5 91.2 84 85.9L 79.5 84.8L 84.7 83.4C 99.5 79.6 107 71.3 107 58.7C 107 47 100.4 39 87.2 35C 78.8 32.4 64.1 31.5 57.9 33.3z"/>
<path style="stroke:none; fill:#ffffff" d="M 294.3 33.5C 276.4 38.4 262.4 52 256.4 70.5C 254.3 76.9 253.7 80.6 253.7 89C 253.5 107.5 258.7 120.9 270.5 132.5C 281.6 143.5 292.9 148 309.5 148C 314.5 148 321.2 147.3 324.5 146.5C 343.4 141.5 358.3 125.9 363.5 105.5C 365.4 97.9 365.4 82.1 363.5 74.5C 358.3 54.1 343.4 38.5 324.5 33.5C 317.2 31.6 301.4 31.6 294.3 33.5zM 319 36.8C 328 41.2 330.6 56.2 329.7 97.8C 329.1 124.1 328.3 130.8 325.2 136.9C 321.9 143.2 319 144.5 308.8 144.5L 299.8 144.5L 296.5 140.8C 290 133.8 289.5 130 289.5 90C 289.5 58.9 289.7 53.8 291.3 48.8C 293.1 42.8 297 37.4 300.4 36C 304.2 34.4 315.3 34.9 319 36.8z"/>
<path style="stroke:none; fill:#ffffff" d="M 126 35.9C 126 37.8 126.6 38 131 38L 136 38L 136 90L 136 142L 131 142C 126.7 142 126 142.3 126 144C 126 145.9 126.7 146 152.3 146C 190.8 146 201.5 144.3 215 136.4C 249.5 116.2 247.7 58.5 212 41.2C 199.5 35.1 196.7 34.8 159.8 34.3L 126 33.8L 126 35.9zM 188.5 40.4C 199.9 45.7 204.1 56 205.5 81.5C 206.8 105 203.3 124.8 196.3 133C 191.1 139 186 141.3 176.3 141.8L 168 142.3L 168 90.1L 168 38L 175.8 38C 181.8 38 184.6 38.5 188.5 40.4z"/>
</g>
</g>
</svg>